<svg width="33" height="33" viewBox="0 0 33 33" fill="none" xmlns="http://www.w3.org/2000/svg">
<path d="M16.0833 30.6667C24.1375 30.6667 30.6667 24.1375 30.6667 16.0833C30.6667 8.02918 24.1375 1.5 16.0833 1.5C8.02918 1.5 1.5 8.02918 1.5 16.0833C1.5 24.1375 8.02918 30.6667 16.0833 30.6667Z"/>
<path d="M20.4583 11.7083L11.7083 20.4583M11.7083 11.7083L20.4583 20.4583M30.6667 16.0833C30.6667 24.1375 24.1375 30.6667 16.0833 30.6667C8.02918 30.6667 1.5 24.1375 1.5 16.0833C1.5 8.02918 8.02918 1.5 16.0833 1.5C24.1375 1.5 30.6667 8.02918 30.6667 16.0833Z" stroke="#8D0B0B" stroke-width="3" stroke-linecap="round" stroke-linejoin="round"/>
</svg>
