<svg width="35" height="30" viewBox="0 0 35 30" fill="none" xmlns="http://www.w3.org/2000/svg">
<path d="M26.1625 22.425C23.6697 24.0538 20.6342 24.9561 17.5 25C7.29171 25 1.45837 15 1.45837 15C3.27238 12.1024 5.78836 9.57076 8.83754 7.575M14.4375 5.3C15.4414 5.0986 16.4691 4.99792 17.5 5C27.7084 5 33.5417 15 33.5417 15C32.6565 16.4195 31.6007 17.7559 30.3917 18.9875M20.5917 17.65C20.1912 18.0184 19.7082 18.3139 19.1715 18.5189C18.6348 18.7239 18.0555 18.8341 17.4681 18.843C16.8807 18.8518 16.2972 18.7592 15.7524 18.5706C15.2076 18.382 14.7128 18.1013 14.2973 17.7452C13.8819 17.3891 13.5544 16.9649 13.3343 16.498C13.1143 16.031 13.0062 15.5309 13.0166 15.0274C13.027 14.5239 13.1555 14.0273 13.3947 13.5673C13.6338 13.1073 13.9785 12.6933 14.4084 12.35M1.45837 1.25L33.5417 28.75" stroke="#185C37" stroke-width="3" stroke-linecap="round" stroke-linejoin="round"/>
</svg>
